<svg data-v-fde0c5aa="" xmlns="http://www.w3.org/2000/svg" viewBox="0 0 300 300" class="iconAbove"><!----><defs data-v-fde0c5aa=""><!----></defs><rect data-v-fde0c5aa="" fill="#0B345A" x="0" y="0" width="300px" height="300px" class="logo-background-square"></rect><defs data-v-fde0c5aa=""><!----></defs><g data-v-fde0c5aa="" id="9c34e8ac-8c37-4097-806f-49dbae5be92c" fill="#22C4D6" transform="matrix(6.143552824628096,0,0,6.143552824628096,9.189777213046693,176.14050921688016)"><path d="M0.38 9.93C0.35 10.19 0.32 10.56 0.32 11.12C0.32 12.03 0.39 12.50 0.52 12.85C0.73 13.41 1.04 13.65 1.72 13.65C2.38 13.65 2.72 13.52 2.94 13.02C3.14 12.57 3.25 11.86 3.25 10.70C3.25 9.23 3.19 9.04 3.09 8.82C3.00 8.58 2.90 8.44 2.67 8.23C2.37 7.94 1.62 7.48 1.39 7.22C1.27 7.11 1.19 7 1.13 6.86C1.04 6.64 1.02 6.55 1.02 5.15C1.02 4.63 1.05 4.33 1.12 4.00C1.22 3.58 1.39 3.44 1.74 3.44C2.11 3.44 2.30 3.58 2.39 3.99C2.46 4.27 2.51 4.59 2.51 5.08C2.51 5.61 2.48 5.96 2.45 6.16L3.12 6.16C3.16 5.94 3.19 5.53 3.19 4.91C3.19 4.21 3.12 3.72 2.98 3.37C2.80 2.93 2.48 2.69 1.74 2.69C1.01 2.69 0.64 2.93 0.46 3.54C0.35 3.91 0.31 4.40 0.31 5.07C0.31 6.45 0.35 6.79 0.46 7.11C0.56 7.36 0.73 7.57 0.90 7.74C1.12 7.98 1.83 8.46 2.14 8.76C2.31 8.93 2.38 9.00 2.44 9.16C2.49 9.31 2.53 9.42 2.53 10.70C2.53 11.70 2.45 12.26 2.31 12.59C2.20 12.84 2.00 12.88 1.72 12.88C1.48 12.88 1.32 12.81 1.20 12.57C1.06 12.28 1.01 11.97 1.01 10.99C1.01 10.49 1.02 10.16 1.05 9.93ZM5.45 13.47L5.45 3.64L6.57 3.64L6.57 2.87L3.53 2.87L3.53 3.64L4.68 3.64L4.68 13.47ZM9.51 10.71C9.51 11.96 9.48 12.21 9.34 12.52C9.23 12.77 9.00 12.85 8.71 12.85C8.41 12.85 8.18 12.77 8.06 12.52C7.92 12.21 7.90 11.96 7.90 10.71L7.90 2.87L7.11 2.87L7.11 10.71C7.11 12.14 7.15 12.52 7.36 12.96C7.59 13.48 8.02 13.65 8.69 13.65C9.37 13.65 9.80 13.47 10.02 12.96C10.23 12.52 10.26 12.12 10.26 10.71L10.26 2.87L9.51 2.87ZM12.73 13.47C13.50 13.47 13.82 13.29 14.03 12.66C14.22 12.04 14.29 11.54 14.29 8.16C14.29 4.96 14.24 4.34 14.01 3.71C13.79 3.08 13.45 2.87 12.73 2.87L11.10 2.87L11.10 13.47ZM11.86 12.68L11.86 3.64L12.71 3.64C13.08 3.64 13.23 3.78 13.36 4.19C13.51 4.69 13.52 5.24 13.52 8.16C13.52 11.21 13.48 11.68 13.36 12.18C13.26 12.57 13.09 12.68 12.71 12.68ZM16.63 13.47L16.63 8.46L17.91 2.94L17.91 2.87L17.16 2.87C16.41 6.15 16.25 6.89 16.23 7.25L16.17 7.25C16.14 6.89 16.00 6.15 15.30 2.87L14.53 2.87L14.53 2.94L15.82 8.47L15.82 13.47ZM21.00 13.47L21.00 9.93L21.94 9.93C22.62 9.93 22.95 9.66 23.10 8.96C23.30 8.11 23.31 7.45 23.31 6.34C23.31 5.33 23.30 4.69 23.10 3.82C22.93 3.09 22.60 2.87 21.95 2.87L20.24 2.87L20.24 13.47ZM21.00 9.17L21.00 3.64L21.84 3.64C22.08 3.64 22.26 3.74 22.36 4.16C22.51 4.83 22.54 5.33 22.54 6.33C22.54 7.53 22.53 8.02 22.36 8.65C22.25 9.07 22.09 9.17 21.84 9.17ZM26.52 13.47L26.52 12.67L24.82 12.67L24.82 2.87L24.07 2.87L24.07 13.47ZM30.18 13.47L29.25 2.87L27.94 2.87L26.94 13.47L27.71 13.47L27.97 10.36L29.15 10.36L29.40 13.47ZM29.11 9.62L28.01 9.62L28.46 4.83C28.52 4.19 28.55 3.78 28.55 3.47L28.60 3.47C28.60 3.78 28.63 4.19 28.69 4.83ZM34.03 13.47L34.03 2.87L33.32 2.87L33.32 7.98C33.32 8.92 33.33 9.45 33.35 9.86L33.29 9.86C33.24 9.46 33.14 8.92 31.86 2.87L30.87 2.87L30.87 13.47L31.58 13.47L31.58 7.25C31.58 6.13 31.58 5.52 31.56 4.72L31.61 4.72C31.75 5.50 31.96 6.30 33.60 13.47ZM38.07 13.47L38.07 2.87L37.35 2.87L37.35 7.98C37.35 8.92 37.37 9.45 37.38 9.86L37.32 9.86C37.27 9.46 37.17 8.92 35.90 2.87L34.90 2.87L34.90 13.47L35.62 13.47L35.62 7.25C35.62 6.13 35.62 5.52 35.59 4.72L35.64 4.72C35.78 5.50 35.99 6.30 37.63 13.47ZM41.51 13.47L41.51 12.67L39.70 12.67L39.70 8.44L41.50 8.44L41.50 7.70L39.70 7.70L39.70 3.64L41.52 3.64L41.52 2.87L38.95 2.87L38.95 13.47ZM45.53 13.47L45.53 13.41C45.44 13.15 45.43 13.02 45.35 11.33C45.28 9.87 45.25 9.55 45.11 9.03C45.05 8.82 44.94 8.61 44.74 8.51L44.74 8.46C44.94 8.40 45.11 8.23 45.22 7.91C45.36 7.49 45.42 7.13 45.42 5.73C45.42 4.13 45.26 3.70 45.04 3.36C44.83 3.04 44.53 2.87 44.04 2.87L42.34 2.87L42.34 13.47L43.09 13.47L43.09 8.81L43.81 8.81C44.10 8.81 44.28 8.92 44.38 9.21C44.49 9.56 44.52 9.83 44.58 11.48C44.63 12.99 44.69 13.22 44.76 13.47ZM43.09 8.11L43.09 3.63L43.99 3.63C44.20 3.63 44.35 3.71 44.46 3.92C44.62 4.20 44.65 4.40 44.65 5.73C44.65 7.18 44.60 7.53 44.44 7.81C44.28 8.06 44.11 8.11 43.78 8.11Z"></path></g><defs data-v-fde0c5aa=""><!----></defs><g data-v-fde0c5aa="" id="67bb6380-52f8-47d4-befa-82b7a42d6158" stroke="none" fill="#22C4D6" transform="matrix(1.3453213658288128,0,0,1.3453213658288128,85.76090478167418,40)"><path d="M22.7 81.7H11.4c-3.8 0-6.8-3.1-6.8-6.8V43c0-1.3-1-2.3-2.3-2.3S0 41.8 0 43v31.8C0 80.3 3.9 84.9 9.1 86v11.6c0 1.3 1 2.3 2.3 2.3s2.3-1 2.3-2.3V86.2h9.1c1.3 0 2.3-1 2.3-2.3s-1.1-2.2-2.4-2.2zm17.1-58c4.4 0 8 3.6 8 8s-3.6 8-8 8-8-3.6-8-8 3.6-8 8-8zm53.3 37.5H34.2c-1.3 0-2.3 1-2.3 2.3 0 1.3 1 2.3 2.3 2.3h27.2l-.1 32c0 1.3 1 2.3 2.3 2.3 1.3 0 2.3-1 2.3-2.3l.1-32h27.2c1.3 0 2.3-1 2.3-2.3-.1-1.3-1.1-2.3-2.4-2.3zM56.8 49.8h-.7l-5.3-5.3c-.4-.4-1.2-.4-1.6 0-.4.4-.4 1.2 0 1.6l3.7 3.7h-8.1L32.4 39.3c-1-.9-1.4-1.3-2.3-1.8-3.4-1.6-7.5-.1-9.1 3.3L7.7 69.7c-1.6 3.4-.1 7.5 3.3 9.1.9.4 1.8.6 2.7.6H30l-9.3 13.5c-1.4 2.1-.9 4.9 1.2 6.3s4.9.9 6.3-1.2l14.2-20.6c.3-.5.6-1 .7-1.6.1-.3.1-.6.1-.9v-.3c0-.2 0-.4-.1-.6 0-.2-.1-.3-.1-.4s-.1-.3-.1-.4c-.1-.1-.1-.3-.2-.4-.1-.1-.1-.2-.2-.4-.1-.1-.2-.3-.3-.4l-.3-.3c-.2-.2-.3-.3-.5-.4-.1 0-.1-.1-.2-.1-.5-.3-1-.6-1.6-.7-.3-.1-.6-.1-.9-.1H22.4l9.2-19.8 8.6 7.3c.9.7 1.9 1.1 2.9 1.1h13.6c2.5 0 4.5-2 4.5-4.5.2-2.6-1.9-4.7-4.4-4.7zm31.8 9.3H72.7c-1.3 0-2.3-1-2.3-2.3s1-2.3 2.3-2.3h15.9c1.3 0 2.3 1 2.3 2.3s-1 2.3-2.3 2.3zm2.3-6.8H77.3c-1.3 0-2.3-1-2.3-2.3s1-2.3 2.3-2.3h13.6c1.3 0 2.3 1 2.3 2.3s-1 2.3-2.3 2.3zM72.7 22.7c-6.3 0-11.4-5.1-11.4-11.4S66.5 0 72.7 0s11.4 5.1 11.4 11.4S79 22.7 72.7 22.7zm0-18.2c-3.8 0-6.8 3.1-6.8 6.8s3.1 6.8 6.8 6.8 6.8-3.1 6.8-6.8-3-6.8-6.8-6.8zm0 8h-4.5c-.6 0-1.1-.5-1.1-1.1s.5-1.1 1.1-1.1h3.4V6.8c0-.6.5-1.1 1.1-1.1s1.1.5 1.1 1.1v4.5c.1.7-.4 1.2-1.1 1.2z"></path></g><!----></svg>