<svg data-v-fde0c5aa="" xmlns="http://www.w3.org/2000/svg" viewBox="0 0 300 300" class="icon"><!----><defs data-v-fde0c5aa=""><!----></defs><rect data-v-fde0c5aa="" fill="#0B345A" x="0" y="0" width="300px" height="300px" class="logo-background-square"></rect><!----><defs data-v-fde0c5aa=""><!----></defs><g data-v-fde0c5aa="" id="08018a75-0ffe-48e9-9e27-36f7139925ac" fill="#22C4D6" stroke="none" transform="matrix(2.1978022313044963,0,0,2.1978022313044963,45.05494345521031,40)"><path d="M22.7 81.7H11.4c-3.8 0-6.8-3.1-6.8-6.8V43c0-1.3-1-2.3-2.3-2.3S0 41.8 0 43v31.8C0 80.3 3.9 84.9 9.1 86v11.6c0 1.3 1 2.3 2.3 2.3s2.3-1 2.3-2.3V86.2h9.1c1.3 0 2.3-1 2.3-2.3s-1.1-2.2-2.4-2.2zm17.1-58c4.4 0 8 3.6 8 8s-3.6 8-8 8-8-3.6-8-8 3.6-8 8-8zm53.3 37.5H34.2c-1.3 0-2.3 1-2.3 2.3 0 1.3 1 2.3 2.3 2.3h27.2l-.1 32c0 1.3 1 2.3 2.3 2.3 1.3 0 2.3-1 2.3-2.3l.1-32h27.2c1.3 0 2.3-1 2.3-2.3-.1-1.3-1.1-2.3-2.4-2.3zM56.8 49.8h-.7l-5.3-5.3c-.4-.4-1.2-.4-1.6 0-.4.4-.4 1.2 0 1.6l3.7 3.7h-8.1L32.4 39.3c-1-.9-1.4-1.3-2.3-1.8-3.4-1.6-7.5-.1-9.1 3.3L7.7 69.7c-1.6 3.4-.1 7.5 3.3 9.1.9.4 1.8.6 2.7.6H30l-9.3 13.5c-1.4 2.1-.9 4.9 1.2 6.3s4.9.9 6.3-1.2l14.2-20.6c.3-.5.6-1 .7-1.6.1-.3.1-.6.1-.9v-.3c0-.2 0-.4-.1-.6 0-.2-.1-.3-.1-.4s-.1-.3-.1-.4c-.1-.1-.1-.3-.2-.4-.1-.1-.1-.2-.2-.4-.1-.1-.2-.3-.3-.4l-.3-.3c-.2-.2-.3-.3-.5-.4-.1 0-.1-.1-.2-.1-.5-.3-1-.6-1.6-.7-.3-.1-.6-.1-.9-.1H22.4l9.2-19.8 8.6 7.3c.9.7 1.9 1.1 2.9 1.1h13.6c2.5 0 4.5-2 4.5-4.5.2-2.6-1.9-4.7-4.4-4.7zm31.8 9.3H72.7c-1.3 0-2.3-1-2.3-2.3s1-2.3 2.3-2.3h15.9c1.3 0 2.3 1 2.3 2.3s-1 2.3-2.3 2.3zm2.3-6.8H77.3c-1.3 0-2.3-1-2.3-2.3s1-2.3 2.3-2.3h13.6c1.3 0 2.3 1 2.3 2.3s-1 2.3-2.3 2.3zM72.7 22.7c-6.3 0-11.4-5.1-11.4-11.4S66.5 0 72.7 0s11.4 5.1 11.4 11.4S79 22.7 72.7 22.7zm0-18.2c-3.8 0-6.8 3.1-6.8 6.8s3.1 6.8 6.8 6.8 6.8-3.1 6.8-6.8-3-6.8-6.8-6.8zm0 8h-4.5c-.6 0-1.1-.5-1.1-1.1s.5-1.1 1.1-1.1h3.4V6.8c0-.6.5-1.1 1.1-1.1s1.1.5 1.1 1.1v4.5c.1.7-.4 1.2-1.1 1.2z"></path></g><!----></svg>